<svg width="36" height="36" viewBox="0 0 36 36" fill="none" xmlns="http://www.w3.org/2000/svg">
<rect width="36" height="36" rx="18" fill="#F15A24"/>
<g clip-path="url(#clip0)">
<path d="M19.1876 30.9512H15.1762C14.5062 30.9512 13.9611 30.4072 13.9611 29.7385V20.7083H11.6208C10.9508 20.7083 10.4058 20.1642 10.4058 19.4956V15.6262C10.4058 14.9575 10.9508 14.4135 11.6208 14.4135H13.9611V12.4758C13.9611 10.5546 14.5656 8.91996 15.709 7.74904C16.8576 6.57278 18.4627 5.95117 20.3508 5.95117L23.4101 5.95613C24.079 5.95728 24.6231 6.50125 24.6231 7.16882V10.7615C24.6231 11.4302 24.0782 11.9742 23.4084 11.9742L21.3486 11.975C20.7204 11.975 20.5605 12.1007 20.5263 12.1392C20.4699 12.2031 20.4028 12.3837 20.4028 12.8825V14.4133H23.2536C23.4682 14.4133 23.6761 14.4661 23.8548 14.5657C24.2403 14.7807 24.4799 15.1871 24.4799 15.6264L24.4784 19.4958C24.4784 20.1642 23.9333 20.7081 23.2633 20.7081H20.4028V29.7385C20.4028 30.4072 19.8576 30.9512 19.1876 30.9512ZM15.4296 29.4856H18.9342V20.0522C18.9342 19.6057 19.2982 19.2425 19.7454 19.2425H23.0099L23.0113 15.8791H19.7452C19.298 15.8791 18.9342 15.516 18.9342 15.0694V12.8825C18.9342 12.3099 18.9924 11.6587 19.4255 11.1693C19.9487 10.5776 20.7734 10.5094 21.3482 10.5094L23.1546 10.5086V7.42136L20.3497 7.41678C17.3153 7.41678 15.4296 9.35541 15.4296 12.4758V15.0694C15.4296 15.5158 15.0657 15.8791 14.6185 15.8791H11.8742V19.2425H14.6185C15.0657 19.2425 15.4296 19.6057 15.4296 20.0522V29.4856ZM23.4072 7.42174H23.4074H23.4072Z" fill="white"/>
</g>
<defs>
<clipPath id="clip0">
<rect width="25" height="25" fill="white" transform="translate(5 6)"/>
</clipPath>
</defs>
</svg>
