<svg width="36" height="36" viewBox="0 0 36 36" fill="none" xmlns="http://www.w3.org/2000/svg">
<rect y="0.000976562" width="36" height="36" rx="18" fill="#F15A24"/>
<path d="M23 8.00098H13C10.2386 8.00098 8 10.2396 8 13.001V23.001C8 25.7624 10.2386 28.001 13 28.001H23C25.7614 28.001 28 25.7624 28 23.001V13.001C28 10.2396 25.7614 8.00098 23 8.00098Z" stroke="white" stroke-width="2" stroke-linecap="round" stroke-linejoin="round"/>
<path d="M22.0002 17.371C22.1236 18.2033 21.9815 19.0533 21.594 19.8C21.2065 20.5468 20.5933 21.1524 19.8418 21.5307C19.0903 21.909 18.2386 22.0406 17.408 21.907C16.5773 21.7733 15.81 21.3811 15.215 20.7862C14.6201 20.1913 14.2279 19.4239 14.0943 18.5932C13.9606 17.7626 14.0923 16.9109 14.4705 16.1594C14.8488 15.4079 15.4544 14.7948 16.2012 14.4073C16.948 14.0198 17.798 13.8776 18.6302 14.001C19.4791 14.1269 20.265 14.5225 20.8719 15.1293C21.4787 15.7362 21.8743 16.5221 22.0002 17.371Z" stroke="white" stroke-width="2" stroke-linecap="round" stroke-linejoin="round"/>
<path d="M23.5 12.501H23.51" stroke="white" stroke-width="2" stroke-linecap="round" stroke-linejoin="round"/>
</svg>
