<svg width="148" height="36" viewBox="0 0 148 36" fill="none" xmlns="http://www.w3.org/2000/svg">
<rect x="112" width="36" height="36" rx="18" fill="#F15A24"/>
<g clip-path="url(#clip0)">
<path d="M131.188 30.9512H127.176C126.506 30.9512 125.961 30.4072 125.961 29.7385V20.7083H123.621C122.951 20.7083 122.406 20.1642 122.406 19.4956V15.6262C122.406 14.9575 122.951 14.4135 123.621 14.4135H125.961V12.4758C125.961 10.5546 126.566 8.91996 127.709 7.74904C128.858 6.57278 130.463 5.95117 132.351 5.95117L135.41 5.95613C136.079 5.95728 136.623 6.50125 136.623 7.16882V10.7615C136.623 11.4302 136.078 11.9742 135.408 11.9742L133.349 11.975C132.72 11.975 132.56 12.1007 132.526 12.1392C132.47 12.2031 132.403 12.3837 132.403 12.8825V14.4133H135.254C135.468 14.4133 135.676 14.4661 135.855 14.5657C136.24 14.7807 136.48 15.1871 136.48 15.6264L136.478 19.4958C136.478 20.1642 135.933 20.7081 135.263 20.7081H132.403V29.7385C132.403 30.4072 131.858 30.9512 131.188 30.9512ZM127.43 29.4856H130.934V20.0522C130.934 19.6057 131.298 19.2425 131.745 19.2425H135.01L135.011 15.8791H131.745C131.298 15.8791 130.934 15.516 130.934 15.0694V12.8825C130.934 12.3099 130.992 11.6587 131.425 11.1693C131.949 10.5776 132.773 10.5094 133.348 10.5094L135.155 10.5086V7.42136L132.35 7.41678C129.315 7.41678 127.43 9.35541 127.43 12.4758V15.0694C127.43 15.5158 127.066 15.8791 126.619 15.8791H123.874V19.2425H126.619C127.066 19.2425 127.43 19.6057 127.43 20.0522V29.4856ZM135.407 7.42174H135.407H135.407Z" fill="white"/>
</g>
<rect x="56" width="36" height="36" rx="18" fill="#F15A24"/>
<g clip-path="url(#clip1)">
<path d="M84.0331 21.1737L84.0185 21.1601C83.788 20.9469 83.0818 20.2583 82.8437 19.9574C82.5642 19.582 82.6287 19.3359 82.8382 18.9673C83.1029 18.5015 83.6333 17.7869 84.1946 17.0303C85.9925 14.6076 87.1533 12.9304 86.9144 11.7391L86.7856 11.1028L80.1458 11.1057C80.1225 11.1684 79.776 12.6935 78.3139 15.2904C77.2537 17.1733 76.5582 17.7649 76.3133 17.8693L76.2754 17.8577C76.1957 17.7591 76.0564 17.4928 75.9991 16.8066C75.9394 16.0877 75.9923 15.2173 76.0436 14.3756C76.1036 13.3886 76.1553 12.5362 76.0315 11.9263L75.8298 10.9327C75.5861 10.8937 74.694 10.5488 72.2082 10.5226C70.0562 10.5005 69.424 10.812 69.1136 11.0865L68.0867 11.9944L69.3847 12.432C69.8787 12.5985 70.0426 12.7907 70.1771 13.7432C70.2649 14.3641 70.3108 15.4074 70.2161 16.3389C70.0799 17.6744 69.7534 17.923 69.7365 17.9362C69.6803 17.917 69.2034 17.7079 68.3755 15.9541C67.8012 14.7378 67.2978 13.299 66.9298 12.2485C66.5088 11.0454 66.5846 11.3015 66.371 10.7331L59.9473 10.7329L60.363 11.8103C62.096 16.3062 63.6861 19.8173 65.814 22.339C68.165 25.1252 71.0868 26.584 75.0225 26.584H75.8135V25.7914C75.8135 25.0505 75.8747 24.5169 76.0059 24.1124C76.0861 23.8659 76.1926 23.6622 76.3044 23.4486C76.4705 23.1341 76.6328 22.9993 76.7214 22.9793C76.8017 22.9609 76.943 23.0199 77.0996 23.1369C77.549 23.4728 77.9058 23.914 78.2836 24.3813C78.8287 25.0556 79.3923 25.7526 80.2865 26.209C80.7751 26.4583 81.6708 26.5842 82.1637 26.5842C82.2941 26.5842 86.9416 26.584 86.9473 26.584L86.9133 25.7588C86.8627 24.525 85.8935 22.9821 84.0331 21.1737ZM82.1944 24.9989H82.1816C81.8418 25.0044 81.1931 24.8928 81.0044 24.7966C80.4099 24.4932 79.9944 23.979 79.513 23.3838C79.0905 22.861 78.6536 22.3204 78.0453 21.8662C77.5534 21.4986 77.1066 21.391 76.7518 21.391C76.6101 21.391 76.4828 21.4082 76.3736 21.4329C75.9619 21.5258 75.3729 21.8226 74.9047 22.7099C74.7727 22.9623 74.6229 23.2482 74.5016 23.6222C74.3745 24.0135 74.2954 24.4484 74.2577 24.9774C71.2918 24.8086 68.9774 23.6329 67.0221 21.3157C65.2042 19.1611 63.774 16.1475 62.2593 12.3174C62.3689 12.3174 65.115 12.3178 65.2772 12.3178C65.3268 12.4576 65.3804 12.6107 65.4372 12.7729C65.8338 13.9063 66.377 15.4582 67.017 16.7816C67.9334 18.6767 68.7704 19.5219 69.7305 19.5219C70.2099 19.5219 70.6398 19.3184 70.9737 18.9331C71.4498 18.3838 71.7262 17.4773 71.8189 16.1616C71.892 15.124 71.8241 14.0906 71.7437 13.5211C71.6774 13.0526 71.5828 12.5608 71.3521 12.1201C72.3353 12.0757 73.6518 12.1459 74.4859 12.2658C74.5617 12.6794 74.5123 13.4924 74.4645 14.279C74.3489 16.1791 74.2297 18.1399 75.2335 19.0573C75.41 19.2187 75.5973 19.3052 75.6026 19.3087L76.1135 19.4658C76.3106 19.4049 77.4524 19.9853 79.6145 16.2047C80.3073 14.9934 80.9523 13.5975 81.2996 12.6858C82.105 12.6842 84.8491 12.6873 85.1714 12.6877C84.7148 13.6947 83.6325 15.131 82.9251 16.0844C82.3083 16.9153 81.7758 17.633 81.4633 18.1828C80.8829 19.2043 80.9805 20.1147 81.5851 20.9178L81.5946 20.9302C81.932 21.3605 82.7652 22.1572 82.9381 22.3178C84.1901 23.5357 84.7934 24.4106 85.0806 24.9986H82.1944V24.9989Z" fill="white"/>
</g>
<rect y="0.000976562" width="36" height="36" rx="18" fill="#F15A24"/>
<path d="M23 8.00098H13C10.2386 8.00098 8 10.2396 8 13.001V23.001C8 25.7624 10.2386 28.001 13 28.001H23C25.7614 28.001 28 25.7624 28 23.001V13.001C28 10.2396 25.7614 8.00098 23 8.00098Z" stroke="white" stroke-width="2" stroke-linecap="round" stroke-linejoin="round"/>
<path d="M22.0002 17.371C22.1236 18.2033 21.9815 19.0533 21.594 19.8C21.2065 20.5468 20.5933 21.1524 19.8418 21.5307C19.0903 21.909 18.2386 22.0406 17.408 21.907C16.5773 21.7733 15.81 21.3811 15.215 20.7862C14.6201 20.1913 14.2279 19.4239 14.0943 18.5932C13.9606 17.7626 14.0923 16.9109 14.4705 16.1594C14.8488 15.4079 15.4544 14.7948 16.2012 14.4073C16.948 14.0198 17.798 13.8776 18.6302 14.001C19.4791 14.1269 20.265 14.5225 20.8719 15.1293C21.4787 15.7362 21.8743 16.5221 22.0002 17.371Z" stroke="white" stroke-width="2" stroke-linecap="round" stroke-linejoin="round"/>
<path d="M23.5 12.501H23.51" stroke="white" stroke-width="2" stroke-linecap="round" stroke-linejoin="round"/>
<defs>
<clipPath id="clip0">
<rect width="25" height="25" fill="white" transform="translate(117 6)"/>
</clipPath>
<clipPath id="clip1">
<rect width="27" height="27" fill="white" transform="translate(60 5)"/>
</clipPath>
</defs>
</svg>
