<svg width="51" height="51" viewBox="0 0 51 51" fill="none" xmlns="http://www.w3.org/2000/svg">
<path d="M12.0525 23.2969H9.65909C8.78876 23.2969 8.06348 24.0221 8.06348 24.8925L8.20853 41.2837C8.20853 42.154 8.9338 42.8793 9.80413 42.8793H12.1975C13.0679 42.8793 13.7931 42.154 13.7931 41.2837L13.6481 24.8925C13.6481 24.0221 12.9228 23.2969 12.0525 23.2969Z" fill="#F15A24"/>
<path d="M41.499 14.521H33.8836C34.1012 14.1583 34.2463 13.7232 34.4639 13.3605L34.6089 12.9979L34.6814 12.7078C34.9716 11.7649 35.1891 10.7495 35.1891 9.73416C35.1891 4.65724 30.9825 0.595703 25.9056 0.595703C23.4397 0.595703 21.0463 1.61109 19.2331 3.4968L19.0155 3.71438L17.71 5.52757L11.2551 15.7539H9.58697C7.12103 15.7539 4.80016 16.7693 3.0595 18.51C1.31884 20.2506 0.375977 22.5715 0.375977 25.0374L0.52104 41.4286C0.52104 46.5055 4.65509 50.5671 9.73201 50.5671H12.198C14.3738 50.5671 16.4045 49.7693 18.0001 48.4638C19.0881 49.6968 20.7562 50.4946 22.5694 50.4946L39.1056 50.422C45.7056 50.422 51.0001 45.055 51.0001 38.5275V24.0946C51.0001 18.7276 46.721 14.521 41.499 14.521ZM44.7628 32.4352C44.5452 32.6528 44.3276 32.8704 44.11 33.0155C44.4727 33.6682 44.6902 34.466 44.7628 35.2638C44.7628 37.0045 43.8199 38.5275 42.3693 39.3253C42.6594 39.9056 42.8045 40.5583 42.8045 41.2111C42.8045 43.9671 40.9188 45.9253 38.2353 45.9253L22.5694 45.9979C21.699 45.9979 20.9738 45.2726 20.9738 44.4023C20.9738 43.5319 21.699 42.8067 22.5694 42.8067L38.2353 42.7341C39.4683 42.7341 39.6133 41.7187 39.6133 41.2111C39.6133 40.5583 39.0331 40.1957 38.888 40.1231C38.0177 39.6154 37.8727 38.8902 37.8727 38.5275C37.8727 37.5122 38.743 36.7144 39.8309 36.7144H40.1935C40.9913 36.7144 41.5716 36.0616 41.5716 35.3363C41.5716 34.8286 41.2814 34.3935 40.8463 34.1759C40.8463 34.1759 40.7738 34.1759 40.7738 34.1034C40.0485 33.7407 39.6858 33.1605 39.6858 32.5078C39.6858 31.9275 40.0485 30.8396 41.5716 30.7671C42.1518 30.6946 42.732 30.1144 42.6595 29.3891C42.6595 28.8089 42.2243 28.2286 41.6441 28.0836C40.7012 27.866 40.0485 27.0682 40.0485 26.1979C40.0485 25.7627 40.1935 25.11 40.9913 24.6023C41.354 24.3122 41.5716 23.9495 41.5716 23.4418C41.5716 22.7166 40.9188 22.0638 40.1935 22.0638L29.677 22.1363C27.2111 22.1363 24.5276 20.4682 24.3826 17.6396V17.5671C24.3826 16.6243 25.0353 15.1012 26.7759 11.6199C27.0661 11.1122 27.2836 10.6045 27.5012 10.0968C27.5737 9.95174 27.5738 9.80668 27.5738 9.66163C27.5738 8.7913 26.8485 8.06603 25.9782 8.06603C25.543 8.06603 25.1804 8.21108 24.8903 8.50119L24.0924 9.66163L16.1144 22.2814C16.6221 23.0067 16.9122 23.9495 16.9122 24.8924L17.0573 41.2836C17.0573 43.9671 14.954 46.1429 12.2705 46.1429H9.87707C7.19356 46.1429 5.01774 44.0396 5.01774 41.3561L4.87268 24.9649C4.87268 22.2814 6.97598 20.1056 9.6595 20.1056H12.0529C12.5606 20.1056 13.0683 20.1781 13.576 20.3232L21.4089 7.92098L22.4243 6.47043L22.4968 6.3979C23.3672 5.45504 24.6001 4.94735 25.9056 4.94735C28.5891 4.94735 30.765 7.05065 30.765 9.73416C30.765 10.2419 30.6924 10.8221 30.5474 11.3298V11.4023L30.4748 11.4748C30.2573 11.9825 29.9672 12.5627 29.677 13.0704C28.9518 14.521 27.7913 16.8418 27.6463 17.5671C27.7913 18.4374 28.8792 18.9451 29.677 18.8726L40.1935 18.8001C42.732 18.8001 44.7628 20.8308 44.7628 23.3693C44.7628 24.1671 44.5452 25.0374 44.11 25.6902C45.1979 26.5605 45.9232 27.866 45.9232 29.3166C45.9232 30.477 45.5606 31.5649 44.7628 32.4352Z" fill="#F15A24"/>
</svg>
