<svg width="36" height="36" viewBox="0 0 36 36" fill="none" xmlns="http://www.w3.org/2000/svg">
<rect width="36" height="36" rx="18" fill="#F15A24"/>
<g clip-path="url(#clip0)">
<path d="M28.0331 21.1737L28.0185 21.1601C27.788 20.9469 27.0818 20.2583 26.8437 19.9574C26.5642 19.582 26.6287 19.3359 26.8382 18.9673C27.1029 18.5015 27.6333 17.7869 28.1946 17.0303C29.9925 14.6076 31.1533 12.9304 30.9144 11.7391L30.7856 11.1028L24.1458 11.1057C24.1225 11.1684 23.776 12.6935 22.3139 15.2904C21.2537 17.1733 20.5582 17.7649 20.3133 17.8693L20.2754 17.8577C20.1957 17.7591 20.0564 17.4928 19.9991 16.8066C19.9394 16.0877 19.9923 15.2173 20.0436 14.3756C20.1036 13.3886 20.1553 12.5362 20.0315 11.9263L19.8298 10.9327C19.5861 10.8937 18.694 10.5488 16.2082 10.5226C14.0562 10.5005 13.424 10.812 13.1136 11.0865L12.0867 11.9944L13.3847 12.432C13.8787 12.5985 14.0426 12.7907 14.1771 13.7432C14.2649 14.3641 14.3108 15.4074 14.2161 16.3389C14.0799 17.6744 13.7534 17.923 13.7365 17.9362C13.6803 17.917 13.2034 17.7079 12.3755 15.9541C11.8012 14.7378 11.2978 13.299 10.9298 12.2485C10.5088 11.0454 10.5846 11.3015 10.371 10.7331L3.94727 10.7329L4.36296 11.8103C6.09599 16.3062 7.68606 19.8173 9.81398 22.339C12.165 25.1252 15.0868 26.584 19.0225 26.584H19.8135V25.7914C19.8135 25.0505 19.8747 24.5169 20.0059 24.1124C20.0861 23.8659 20.1926 23.6622 20.3044 23.4486C20.4705 23.1341 20.6328 22.9993 20.7214 22.9793C20.8017 22.9609 20.943 23.0199 21.0996 23.1369C21.549 23.4728 21.9058 23.914 22.2836 24.3813C22.8287 25.0556 23.3923 25.7526 24.2865 26.209C24.7751 26.4583 25.6708 26.5842 26.1637 26.5842C26.2941 26.5842 30.9416 26.584 30.9473 26.584L30.9133 25.7588C30.8627 24.525 29.8935 22.9821 28.0331 21.1737ZM26.1944 24.9989H26.1816C25.8418 25.0044 25.1931 24.8928 25.0044 24.7966C24.4099 24.4932 23.9944 23.979 23.513 23.3838C23.0905 22.861 22.6536 22.3204 22.0453 21.8662C21.5534 21.4986 21.1066 21.391 20.7518 21.391C20.6101 21.391 20.4828 21.4082 20.3736 21.4329C19.9619 21.5258 19.3729 21.8226 18.9047 22.7099C18.7727 22.9623 18.6229 23.2482 18.5016 23.6222C18.3745 24.0135 18.2954 24.4484 18.2577 24.9774C15.2918 24.8086 12.9774 23.6329 11.0221 21.3157C9.20423 19.1611 7.77402 16.1475 6.25934 12.3174C6.36893 12.3174 9.11504 12.3178 9.27716 12.3178C9.3268 12.4576 9.38036 12.6107 9.43721 12.7729C9.83375 13.9063 10.377 15.4582 11.017 16.7816C11.9334 18.6767 12.7704 19.5219 13.7305 19.5219C14.2099 19.5219 14.6398 19.3184 14.9737 18.9331C15.4498 18.3838 15.7262 17.4773 15.8189 16.1616C15.892 15.124 15.8241 14.0906 15.7437 13.5211C15.6774 13.0526 15.5828 12.5608 15.3521 12.1201C16.3353 12.0757 17.6518 12.1459 18.4859 12.2658C18.5617 12.6794 18.5123 13.4924 18.4645 14.279C18.3489 16.1791 18.2297 18.1399 19.2335 19.0573C19.41 19.2187 19.5973 19.3052 19.6026 19.3087L20.1135 19.4658C20.3106 19.4049 21.4524 19.9853 23.6145 16.2047C24.3073 14.9934 24.9523 13.5975 25.2996 12.6858C26.105 12.6842 28.8491 12.6873 29.1714 12.6877C28.7148 13.6947 27.6325 15.131 26.9251 16.0844C26.3083 16.9153 25.7758 17.633 25.4633 18.1828C24.8829 19.2043 24.9805 20.1147 25.5851 20.9178L25.5946 20.9302C25.932 21.3605 26.7652 22.1572 26.9381 22.3178C28.1901 23.5357 28.7934 24.4106 29.0806 24.9986H26.1944V24.9989Z" fill="white"/>
</g>
<defs>
<clipPath id="clip0">
<rect width="27" height="27" fill="white" transform="translate(4 5)"/>
</clipPath>
</defs>
</svg>
